<mxfile host="app.diagrams.net" agent="Mozilla/5.0 (Macintosh; Intel Mac OS X 10_15_7) AppleWebKit/537.36 (KHTML, like Gecko) Chrome/134.0.0.0 Safari/537.36" version="26.1.0">
  <diagram name="第 1 页" id="Q5JGLOESr6KCGF16CpGu">
    <mxGraphModel dx="2175" dy="785" grid="1" gridSize="10" guides="1" tooltips="1" connect="1" arrows="1" fold="1" page="1" pageScale="1" pageWidth="827" pageHeight="1169" math="0" shadow="0">
      <root>
        <mxCell id="0" />
        <mxCell id="1" parent="0" />
        <mxCell id="AUYiLDpd_ouZAlkqIN40-6" style="edgeStyle=orthogonalEdgeStyle;rounded=0;orthogonalLoop=1;jettySize=auto;html=1;" parent="1" source="AUYiLDpd_ouZAlkqIN40-1" target="AUYiLDpd_ouZAlkqIN40-4" edge="1">
          <mxGeometry relative="1" as="geometry" />
        </mxCell>
        <mxCell id="F5cY_N7YGmtJNQgzBh2U-24" style="edgeStyle=orthogonalEdgeStyle;rounded=0;orthogonalLoop=1;jettySize=auto;html=1;entryX=1;entryY=0.5;entryDx=0;entryDy=0;" edge="1" parent="1" source="AUYiLDpd_ouZAlkqIN40-1" target="AUYiLDpd_ouZAlkqIN40-5">
          <mxGeometry relative="1" as="geometry">
            <Array as="points">
              <mxPoint x="470" y="170" />
              <mxPoint x="470" y="720" />
            </Array>
          </mxGeometry>
        </mxCell>
        <mxCell id="AUYiLDpd_ouZAlkqIN40-1" value="&lt;span style=&quot;font-family: -apple-system, &amp;quot;system-ui&amp;quot;, &amp;quot;Segoe UI&amp;quot;, Roboto, &amp;quot;Helvetica Neue&amp;quot;, Arial, &amp;quot;Noto Sans&amp;quot;, sans-serif, &amp;quot;Apple Color Emoji&amp;quot;, &amp;quot;Segoe UI Emoji&amp;quot;, &amp;quot;Segoe UI Symbol&amp;quot;, &amp;quot;Noto Color Emoji&amp;quot;; font-size: 14px; text-align: start; background-color: light-dark(#ffffff, var(--ge-dark-color, #121212));&quot;&gt;&lt;b style=&quot;&quot;&gt;&lt;font style=&quot;color: rgb(255, 51, 51);&quot;&gt;live.live-gateway.play-gateway&lt;/font&gt;&lt;/b&gt;&lt;/span&gt;" style="rounded=0;whiteSpace=wrap;html=1;" parent="1" vertex="1">
          <mxGeometry x="-60" y="140" width="230" height="60" as="geometry" />
        </mxCell>
        <mxCell id="F5cY_N7YGmtJNQgzBh2U-20" style="edgeStyle=orthogonalEdgeStyle;rounded=0;orthogonalLoop=1;jettySize=auto;html=1;entryX=1;entryY=0.5;entryDx=0;entryDy=0;" edge="1" parent="1" source="AUYiLDpd_ouZAlkqIN40-4" target="F5cY_N7YGmtJNQgzBh2U-1">
          <mxGeometry relative="1" as="geometry" />
        </mxCell>
        <mxCell id="F5cY_N7YGmtJNQgzBh2U-21" style="edgeStyle=orthogonalEdgeStyle;rounded=0;orthogonalLoop=1;jettySize=auto;html=1;entryX=1;entryY=0.5;entryDx=0;entryDy=0;" edge="1" parent="1" source="AUYiLDpd_ouZAlkqIN40-4" target="F5cY_N7YGmtJNQgzBh2U-2">
          <mxGeometry relative="1" as="geometry" />
        </mxCell>
        <mxCell id="AUYiLDpd_ouZAlkqIN40-4" value="&lt;font style=&quot;color: rgb(255, 51, 51);&quot;&gt;&lt;span style=&quot;font-size: 14px;&quot;&gt;&lt;b style=&quot;&quot;&gt;live.live-infra.playurl-strategy&lt;/b&gt;&lt;/span&gt;&lt;/font&gt;" style="rounded=0;whiteSpace=wrap;html=1;" parent="1" vertex="1">
          <mxGeometry x="560" y="400" width="260" height="60" as="geometry" />
        </mxCell>
        <mxCell id="AUYiLDpd_ouZAlkqIN40-5" value="video.pung.playurl" style="rounded=0;whiteSpace=wrap;html=1;" parent="1" vertex="1">
          <mxGeometry x="-30" y="690" width="170" height="60" as="geometry" />
        </mxCell>
        <mxCell id="F5cY_N7YGmtJNQgzBh2U-15" style="edgeStyle=orthogonalEdgeStyle;rounded=0;orthogonalLoop=1;jettySize=auto;html=1;entryX=0;entryY=0.5;entryDx=0;entryDy=0;" edge="1" parent="1" source="F5cY_N7YGmtJNQgzBh2U-1" target="AUYiLDpd_ouZAlkqIN40-4">
          <mxGeometry relative="1" as="geometry" />
        </mxCell>
        <mxCell id="F5cY_N7YGmtJNQgzBh2U-1" value="&lt;span style=&quot;color: rgb(34, 34, 34); font-family: -apple-system, &amp;quot;system-ui&amp;quot;, &amp;quot;Segoe UI&amp;quot;, Roboto, &amp;quot;Helvetica Neue&amp;quot;, Arial, &amp;quot;Noto Sans&amp;quot;, sans-serif, &amp;quot;Apple Color Emoji&amp;quot;, &amp;quot;Segoe UI Emoji&amp;quot;, &amp;quot;Segoe UI Symbol&amp;quot;, &amp;quot;Noto Color Emoji&amp;quot;; font-size: 14px; text-align: start; background-color: rgb(255, 255, 255);&quot;&gt;app/web-room&lt;/span&gt;" style="rounded=0;whiteSpace=wrap;html=1;" vertex="1" parent="1">
          <mxGeometry x="-60" y="320" width="240" height="60" as="geometry" />
        </mxCell>
        <mxCell id="F5cY_N7YGmtJNQgzBh2U-12" style="edgeStyle=orthogonalEdgeStyle;rounded=0;orthogonalLoop=1;jettySize=auto;html=1;entryX=0;entryY=0.5;entryDx=0;entryDy=0;" edge="1" parent="1" source="F5cY_N7YGmtJNQgzBh2U-2" target="AUYiLDpd_ouZAlkqIN40-4">
          <mxGeometry relative="1" as="geometry" />
        </mxCell>
        <mxCell id="F5cY_N7YGmtJNQgzBh2U-2" value="&lt;div style=&quot;text-align: start;&quot;&gt;&lt;font face=&quot;-apple-system, system-ui, Segoe UI, Roboto, Helvetica Neue, Arial, Noto Sans, sans-serif, Apple Color Emoji, Segoe UI Emoji, Segoe UI Symbol, Noto Color Emoji&quot; color=&quot;#222222&quot;&gt;&lt;span style=&quot;font-size: 14px; background-color: rgb(255, 255, 255);&quot;&gt;xroom&lt;/span&gt;&lt;/font&gt;&lt;/div&gt;" style="rounded=0;whiteSpace=wrap;html=1;" vertex="1" parent="1">
          <mxGeometry x="-60" y="500" width="240" height="60" as="geometry" />
        </mxCell>
        <mxCell id="F5cY_N7YGmtJNQgzBh2U-8" style="edgeStyle=orthogonalEdgeStyle;rounded=0;orthogonalLoop=1;jettySize=auto;html=1;entryX=0;entryY=0.5;entryDx=0;entryDy=0;" edge="1" parent="1" source="F5cY_N7YGmtJNQgzBh2U-4" target="AUYiLDpd_ouZAlkqIN40-1">
          <mxGeometry relative="1" as="geometry">
            <Array as="points">
              <mxPoint x="-240" y="430" />
              <mxPoint x="-240" y="170" />
            </Array>
          </mxGeometry>
        </mxCell>
        <mxCell id="F5cY_N7YGmtJNQgzBh2U-9" style="edgeStyle=orthogonalEdgeStyle;rounded=0;orthogonalLoop=1;jettySize=auto;html=1;entryX=0;entryY=0.5;entryDx=0;entryDy=0;" edge="1" parent="1" source="F5cY_N7YGmtJNQgzBh2U-4" target="F5cY_N7YGmtJNQgzBh2U-1">
          <mxGeometry relative="1" as="geometry">
            <Array as="points">
              <mxPoint x="-240" y="430" />
              <mxPoint x="-240" y="350" />
            </Array>
          </mxGeometry>
        </mxCell>
        <mxCell id="F5cY_N7YGmtJNQgzBh2U-10" style="edgeStyle=orthogonalEdgeStyle;rounded=0;orthogonalLoop=1;jettySize=auto;html=1;entryX=0;entryY=0.5;entryDx=0;entryDy=0;" edge="1" parent="1" source="F5cY_N7YGmtJNQgzBh2U-4" target="F5cY_N7YGmtJNQgzBh2U-2">
          <mxGeometry relative="1" as="geometry">
            <Array as="points">
              <mxPoint x="-240" y="430" />
              <mxPoint x="-240" y="530" />
            </Array>
          </mxGeometry>
        </mxCell>
        <mxCell id="F5cY_N7YGmtJNQgzBh2U-4" value="Actor" style="shape=umlActor;verticalLabelPosition=bottom;verticalAlign=top;html=1;outlineConnect=0;" vertex="1" parent="1">
          <mxGeometry x="-465" y="400" width="40" height="60" as="geometry" />
        </mxCell>
        <mxCell id="F5cY_N7YGmtJNQgzBh2U-7" style="edgeStyle=orthogonalEdgeStyle;rounded=0;orthogonalLoop=1;jettySize=auto;html=1;entryX=0;entryY=0.5;entryDx=0;entryDy=0;" edge="1" parent="1" source="F5cY_N7YGmtJNQgzBh2U-5" target="AUYiLDpd_ouZAlkqIN40-1">
          <mxGeometry relative="1" as="geometry">
            <Array as="points">
              <mxPoint x="-240" y="240" />
              <mxPoint x="-240" y="170" />
            </Array>
          </mxGeometry>
        </mxCell>
        <mxCell id="F5cY_N7YGmtJNQgzBh2U-5" value="Actor" style="shape=umlActor;verticalLabelPosition=bottom;verticalAlign=top;html=1;outlineConnect=0;" vertex="1" parent="1">
          <mxGeometry x="-460" y="210" width="30" height="60" as="geometry" />
        </mxCell>
        <mxCell id="F5cY_N7YGmtJNQgzBh2U-11" style="edgeStyle=orthogonalEdgeStyle;rounded=0;orthogonalLoop=1;jettySize=auto;html=1;entryX=0;entryY=0.5;entryDx=0;entryDy=0;" edge="1" parent="1" source="F5cY_N7YGmtJNQgzBh2U-6" target="F5cY_N7YGmtJNQgzBh2U-2">
          <mxGeometry relative="1" as="geometry">
            <Array as="points">
              <mxPoint x="-240" y="615" />
              <mxPoint x="-240" y="530" />
            </Array>
          </mxGeometry>
        </mxCell>
        <mxCell id="F5cY_N7YGmtJNQgzBh2U-6" value="Actor" style="shape=umlActor;verticalLabelPosition=bottom;verticalAlign=top;html=1;outlineConnect=0;" vertex="1" parent="1">
          <mxGeometry x="-460" y="585" width="30" height="60" as="geometry" />
        </mxCell>
        <mxCell id="F5cY_N7YGmtJNQgzBh2U-16" value="P0" style="text;strokeColor=none;align=center;fillColor=none;html=1;verticalAlign=middle;whiteSpace=wrap;rounded=0;" vertex="1" parent="1">
          <mxGeometry x="-160" y="320" width="60" height="30" as="geometry" />
        </mxCell>
        <mxCell id="F5cY_N7YGmtJNQgzBh2U-17" value="master_url" style="text;strokeColor=none;align=center;fillColor=none;html=1;verticalAlign=middle;whiteSpace=wrap;rounded=0;" vertex="1" parent="1">
          <mxGeometry x="-160" y="140" width="60" height="30" as="geometry" />
        </mxCell>
        <mxCell id="F5cY_N7YGmtJNQgzBh2U-18" value="秒开" style="text;strokeColor=none;align=center;fillColor=none;html=1;verticalAlign=middle;whiteSpace=wrap;rounded=0;" vertex="1" parent="1">
          <mxGeometry x="-160" y="500" width="60" height="30" as="geometry" />
        </mxCell>
        <mxCell id="F5cY_N7YGmtJNQgzBh2U-19" style="edgeStyle=orthogonalEdgeStyle;rounded=0;orthogonalLoop=1;jettySize=auto;html=1;" edge="1" parent="1" source="F5cY_N7YGmtJNQgzBh2U-2">
          <mxGeometry relative="1" as="geometry">
            <mxPoint x="60" y="690" as="targetPoint" />
          </mxGeometry>
        </mxCell>
        <mxCell id="F5cY_N7YGmtJNQgzBh2U-22" value="auto_quality" style="text;strokeColor=none;align=center;fillColor=none;html=1;verticalAlign=middle;whiteSpace=wrap;rounded=0;" vertex="1" parent="1">
          <mxGeometry x="-160" y="170" width="60" height="30" as="geometry" />
        </mxCell>
        <mxCell id="F5cY_N7YGmtJNQgzBh2U-25" value="master_url" style="text;strokeColor=none;align=center;fillColor=none;html=1;verticalAlign=middle;whiteSpace=wrap;rounded=0;" vertex="1" parent="1">
          <mxGeometry x="480" y="280" width="60" height="30" as="geometry" />
        </mxCell>
        <mxCell id="F5cY_N7YGmtJNQgzBh2U-29" style="edgeStyle=orthogonalEdgeStyle;rounded=0;orthogonalLoop=1;jettySize=auto;html=1;" edge="1" parent="1" source="F5cY_N7YGmtJNQgzBh2U-28" target="AUYiLDpd_ouZAlkqIN40-4">
          <mxGeometry relative="1" as="geometry" />
        </mxCell>
        <mxCell id="F5cY_N7YGmtJNQgzBh2U-28" value="paladin" style="ellipse;whiteSpace=wrap;html=1;" vertex="1" parent="1">
          <mxGeometry x="630" y="575" width="120" height="80" as="geometry" />
        </mxCell>
        <mxCell id="F5cY_N7YGmtJNQgzBh2U-30" value="热更新&lt;br&gt;长反实验&lt;div&gt;起播清晰度策略&lt;/div&gt;&lt;div&gt;自动清晰度策略&lt;/div&gt;" style="text;html=1;align=center;verticalAlign=middle;resizable=0;points=[];autosize=1;strokeColor=none;fillColor=none;" vertex="1" parent="1">
          <mxGeometry x="680" y="480" width="110" height="70" as="geometry" />
        </mxCell>
        <mxCell id="F5cY_N7YGmtJNQgzBh2U-41" style="edgeStyle=orthogonalEdgeStyle;rounded=0;orthogonalLoop=1;jettySize=auto;html=1;" edge="1" parent="1" source="F5cY_N7YGmtJNQgzBh2U-31" target="F5cY_N7YGmtJNQgzBh2U-39">
          <mxGeometry relative="1" as="geometry" />
        </mxCell>
        <mxCell id="F5cY_N7YGmtJNQgzBh2U-31" value="multimedia-strategy-service" style="rounded=0;whiteSpace=wrap;html=1;" vertex="1" parent="1">
          <mxGeometry x="860" y="400" width="250" height="60" as="geometry" />
        </mxCell>
        <mxCell id="F5cY_N7YGmtJNQgzBh2U-32" style="edgeStyle=orthogonalEdgeStyle;rounded=0;orthogonalLoop=1;jettySize=auto;html=1;entryX=1;entryY=0.6;entryDx=0;entryDy=0;entryPerimeter=0;" edge="1" parent="1" source="F5cY_N7YGmtJNQgzBh2U-31" target="F5cY_N7YGmtJNQgzBh2U-28">
          <mxGeometry relative="1" as="geometry">
            <Array as="points">
              <mxPoint x="985" y="623" />
            </Array>
          </mxGeometry>
        </mxCell>
        <mxCell id="F5cY_N7YGmtJNQgzBh2U-40" style="edgeStyle=orthogonalEdgeStyle;rounded=0;orthogonalLoop=1;jettySize=auto;html=1;entryX=1;entryY=0.5;entryDx=0;entryDy=0;" edge="1" parent="1" source="F5cY_N7YGmtJNQgzBh2U-33" target="F5cY_N7YGmtJNQgzBh2U-39">
          <mxGeometry relative="1" as="geometry" />
        </mxCell>
        <mxCell id="F5cY_N7YGmtJNQgzBh2U-45" style="edgeStyle=orthogonalEdgeStyle;rounded=0;orthogonalLoop=1;jettySize=auto;html=1;" edge="1" parent="1" source="F5cY_N7YGmtJNQgzBh2U-33" target="F5cY_N7YGmtJNQgzBh2U-35">
          <mxGeometry relative="1" as="geometry" />
        </mxCell>
        <mxCell id="F5cY_N7YGmtJNQgzBh2U-33" value="live.live.dao-anchor-job" style="rounded=0;whiteSpace=wrap;html=1;" vertex="1" parent="1">
          <mxGeometry x="840" y="60" width="270" height="60" as="geometry" />
        </mxCell>
        <mxCell id="F5cY_N7YGmtJNQgzBh2U-48" style="edgeStyle=orthogonalEdgeStyle;rounded=0;orthogonalLoop=1;jettySize=auto;html=1;" edge="1" parent="1" source="F5cY_N7YGmtJNQgzBh2U-35" target="F5cY_N7YGmtJNQgzBh2U-5">
          <mxGeometry relative="1" as="geometry" />
        </mxCell>
        <mxCell id="F5cY_N7YGmtJNQgzBh2U-35" value="长连" style="rounded=0;whiteSpace=wrap;html=1;" vertex="1" parent="1">
          <mxGeometry x="350" y="60" width="250" height="60" as="geometry" />
        </mxCell>
        <mxCell id="F5cY_N7YGmtJNQgzBh2U-39" value="databus" style="shape=process;whiteSpace=wrap;html=1;backgroundOutline=1;" vertex="1" parent="1">
          <mxGeometry x="925" y="220" width="120" height="60" as="geometry" />
        </mxCell>
        <mxCell id="F5cY_N7YGmtJNQgzBh2U-42" value="自动清晰度变更事件" style="text;html=1;align=center;verticalAlign=middle;resizable=0;points=[];autosize=1;strokeColor=none;fillColor=none;" vertex="1" parent="1">
          <mxGeometry x="980" y="330" width="130" height="30" as="geometry" />
        </mxCell>
        <mxCell id="F5cY_N7YGmtJNQgzBh2U-43" value="自动清晰度变更事件" style="text;html=1;align=center;verticalAlign=middle;resizable=0;points=[];autosize=1;strokeColor=none;fillColor=none;" vertex="1" parent="1">
          <mxGeometry x="1120" y="180" width="130" height="30" as="geometry" />
        </mxCell>
        <mxCell id="F5cY_N7YGmtJNQgzBh2U-46" value="全区广播" style="text;html=1;align=center;verticalAlign=middle;resizable=0;points=[];autosize=1;strokeColor=none;fillColor=none;" vertex="1" parent="1">
          <mxGeometry x="680" y="60" width="70" height="30" as="geometry" />
        </mxCell>
      </root>
    </mxGraphModel>
  </diagram>
</mxfile>
